<svg width="1325" height="1024" viewBox="0 0 1325 1024" fill="none" xmlns="http://www.w3.org/2000/svg">
<g opacity="0.16">
<path d="M1011.94 -2.98145C1024.17 29.3545 1036.62 61.616 1048.58 94.0452C1140.33 342.538 1232.02 591.05 1323.45 839.655C1325.3 844.669 1325.58 851.453 1323.79 856.41C1304.74 909.247 1284.99 961.824 1265.85 1014.64C1263.28 1021.76 1260 1024.07 1252.37 1024C1206.9 1023.59 1161.41 1023.79 1115.41 1023.79C1099.96 981.896 1084.68 940.391 1069.36 898.885C960.263 603.258 851.146 307.649 742.141 11.9844C740.389 7.23188 739.923 2.01339 738.861 -2.98145C829.882 -2.98145 920.903 -2.98145 1011.92 -2.98145H1011.94Z" fill="url(#paint0_linear_101_884)"/>
<path d="M273.082 -2.98145C285.308 29.3545 297.757 61.616 309.721 94.0452C401.469 342.538 493.162 591.05 584.593 839.655C586.438 844.669 586.717 851.453 584.928 856.41C565.882 909.247 546.127 961.824 526.987 1014.64C524.415 1021.76 521.135 1024.07 513.513 1024C468.039 1023.59 422.548 1023.79 376.552 1023.79C361.103 981.896 345.821 940.391 330.501 898.885C221.403 603.258 112.285 307.649 3.28006 11.9844C1.52822 7.23188 1.06229 2.01339 0 -2.98145C91.0211 -2.98145 182.042 -2.98145 273.063 -2.98145H273.082Z" fill="url(#paint1_linear_101_884)"/>
</g>
<defs>
<linearGradient id="paint0_linear_101_884" x1="1031.93" y1="-2.98145" x2="1031.93" y2="1024" gradientUnits="userSpaceOnUse">
<stop stop-color="#404040" stop-opacity="0.16"/>
<stop offset="1" stop-color="#515151"/>
</linearGradient>
<linearGradient id="paint1_linear_101_884" x1="293.066" y1="-2.98145" x2="293.066" y2="1024" gradientUnits="userSpaceOnUse">
<stop stop-color="#404040" stop-opacity="0.16"/>
<stop offset="1" stop-color="#515151"/>
</linearGradient>
</defs>
</svg>
